HIERARCHY
ROOT Hips
{
  OFFSET -125.086 92.215 135.881
  CHANNELS 6 Xposition Yposition Zposition Zrotation Xrotation Yrotation
  JOINT LeftUpLeg
  {
    OFFSET 8.64259 1.95398 -2.38835
    CHANNELS 3 Zrotation Xrotation Yrotation
    JOINT LeftLeg
    {
      OFFSET 43.7702 0 0
      CHANNELS 3 Zrotation Xrotation Yrotation
      JOINT LeftFoot
      {
        OFFSET 40.6238 0 0
        CHANNELS 3 Zrotation Xrotation Yrotation
        JOINT LeftToeBase
        {
          OFFSET 12.7242 0 0
          CHANNELS 3 Zrotation Xrotation Yrotation
          End Site
          {
            OFFSET 0 0 0
          }
        }
      }
    }
  }
  JOINT RightUpLeg
  {
    OFFSET -8.2249 1.95398 -2.59336
    CHANNELS 3 Zrotation Xrotation Yrotation
    JOINT RightLeg
    {
      OFFSET 43.5653 0 0
      CHANNELS 3 Zrotation Xrotation Yrotation
      JOINT RightFoot
      {
        OFFSET 40.6238 0 0
        CHANNELS 3 Zrotation Xrotation Yrotation
        JOINT RightToeBase
        {
          OFFSET 12.7242 0 0
          CHANNELS 3 Zrotation Xrotation Yrotation
          End Site
          {
            OFFSET 0 0 0
          }
        }
      }
    }
  }
  JOINT Spine
  {
    OFFSET 0.165834 0.87714 6.61349
    CHANNELS 3 Zrotation Xrotation Yrotation
    JOINT Spine1
    {
      OFFSET 7.38963 1.71661e-005 0
      CHANNELS 3 Zrotation Xrotation Yrotation
      JOINT Spine2
      {
        OFFSET 11.9445 1.14441e-005 0
        CHANNELS 3 Zrotation Xrotation Yrotation
        JOINT Spine3
        {
          OFFSET 14.7254 4.19617e-005 0
          CHANNELS 3 Zrotation Xrotation Yrotation
          JOINT Spine4
          {
            OFFSET 10.9679 0 0
            CHANNELS 3 Zrotation Xrotation Yrotation
            JOINT RightShoulder
            {
              OFFSET 2.46616 -1.6653 3.69651
              CHANNELS 3 Zrotation Xrotation Yrotation
              JOINT RightArm
              {
                OFFSET 13.0012 0 0
                CHANNELS 3 Zrotation Xrotation Yrotation
                JOINT RightForeArm
                {
                  OFFSET 28.7848 1.52588e-005 0
                  CHANNELS 3 Zrotation Xrotation Yrotation
                  JOINT RightHand
                  {
                    OFFSET 26.5688 1.52588e-005 0
                    CHANNELS 3 Zrotation Xrotation Yrotation
                    End Site
                    {
                      OFFSET 0 0 0
                    }
                  }
                }
              }
            }
            JOINT LeftShoulder
            {
              OFFSET 2.38034 -1.29275 -3.7523
              CHANNELS 3 Zrotation Xrotation Yrotation
              JOINT LeftArm
              {
                OFFSET 16.3182 6.10352e-005 0
                CHANNELS 3 Zrotation Xrotation Yrotation
                JOINT LeftForeArm
                {
                  OFFSET 27.0901 0 0
                  CHANNELS 3 Zrotation Xrotation Yrotation
                  JOINT LeftHand
                  {
                    OFFSET 24.5451 1.52588e-005 0
                    CHANNELS 3 Zrotation Xrotation Yrotation
                    End Site
                    {
                      OFFSET 0 0 0
                    }
                  }
                }
              }
            }
            JOINT Neck
            {
              OFFSET 5.0226 -0.0266342 0
              CHANNELS 3 Zrotation Xrotation Yrotation
              JOINT Head
              {
                OFFSET 6.69363 2.86102e-005 0
                CHANNELS 3 Zrotation Xrotation Yrotation
                End Site
                {
                  OFFSET 0 0 0
                }
              }
            }
          }
        }
      }
    }
  }
}
MOTION
Frames:	17
Frame Time:	0.0416667
-112.831 93.5023 119.595 98.0375 42.1517 87.2719 -179.205 20.416 87.2611 -31.7676 6.78525 1.73001 57.0781 5.78548 7.241 59.9544 -0.921749 11.1108 176.372 7.08231 92.4796 -33.5831 -4.32832 -0.0411403 71.0178 -1.4603 14.8689 31.8213 -0.405845 -1.04815 0.124054 8.56067 -91.0104 9.74642 -0.209911 -1.98756 -1.92599 -0.297178 -1.97641 -24.4493 0.397017 -1.9588 -4.43663 0.396998 -1.95881 111.629 -57.7205 -68.7491 20.0627 -2.38167 -21.3037 -0.476264 -31.6881 -17.2495 -10.237 -0.628668 2.04554 -72.5432 -51.6486 104.777 -39.3547 -11.1398 -21.9825 4.31213 69.3097 0.0186279 -3.58494 -0.0293689 -10.1101 2.2508 2.1876 -2.44236 -25.3868 0.289895 11.8226 
-107.067 93.1645 114.235 96.3779 41.9082 88.9566 -179.108 22.2613 87.9489 -8.42918 6.53841 0.807499 51.1936 -0.259399 4.55234 49.8257 -1.29759 7.16685 176.269 2.4945 92.8743 -32.4489 -3.90548 -0.264685 72.7426 -2.28424 15.3759 37.4483 -1.3497 -0.0245931 0.388758 8.56719 -91.0228 9.73787 0.312204 -2.0532 -1.93468 0.221566 -2.06496 -24.4589 0.914745 -1.86457 -4.4463 0.914741 -1.86458 110.518 -57.2522 -70.2544 19.6564 -3.7448 -23.9569 -0.84762 -30.3609 -19.3123 -11.2576 -0.676493 1.8721 -71.8759 -52.0145 105.733 -36.6514 -12.4971 -17.5765 3.16917 69.107 0.0135445 -3.08946 -0.0477192 -11.2013 1.21313 1.74014 -1.45912 -23.8965 0.0320256 10.7305 
-100.629 91.264 108.501 94.9757 40.2912 90.4948 -179.183 27.9983 89.7148 -5.00884 5.02475 0.904349 55.9263 -0.126452 4.2382 51.0518 -1.26353 7.94348 176.592 -0.96496 93.4844 -35.1943 -4.55937 -1.24052 76.6665 -4.32858 14.456 44.0461 -2.37819 -0.144801 0.753513 8.62172 -90.9594 9.63613 1.06902 -1.98423 -2.03597 0.980663 -2.02934 -24.5663 1.61587 -1.57134 -4.55361 1.61586 -1.57135 109.062 -56.9874 -72.2942 18.9386 -6.35041 -26.8183 -1.22372 -30.0007 -22.2526 -12.5133 -0.741841 1.7505 -70.9045 -52.5145 107.114 -34.4789 -13.0188 -13.1347 2.6479 65.9028 -1.15339 -2.91695 -0.0625928 -10.2513 0.387737 1.54163 0.0750713 -22.4615 -0.00728684 9.23364 
-93.488 89.1577 102.082 92.2584 38.3452 91.6988 -179.707 31.2433 90.9869 -6.44106 6.62778 1.40082 54.4513 0.174734 5.74557 51.3778 -1.28888 7.68034 176.61 -4.29335 92.5291 -36.9941 -5.6375 -2.85204 77.3883 -4.4905 15.6237 52.3786 -3.93256 -1.95188 1.07956 8.68757 -90.6578 9.50913 1.85615 -1.4476 -2.16139 1.79065 -1.52789 -24.7046 2.20536 -0.822686 -4.69194 2.20536 -0.822688 108.306 -57.0758 -73.3836 17.7693 -10.7109 -31.3033 -1.49439 -30.2708 -26.2806 -12.7769 -0.745773 1.65874 -70.1926 -52.9742 108.104 -33.8843 -13.7654 -10.7135 3.89564 64.8424 -2.39493 -2.68633 -0.0734832 -10.6714 1.03239 1.39368 0.119762 -20.527 -0.0181096 9.33674 
-85.8768 87.4836 94.741 86.9395 41.0781 92.6382 179.783 38.2195 88.3889 -17.9419 6.55547 0.240042 48.7087 -2.34359 6.41554 50.7428 -1.20167 8.89851 175.895 -6.18909 90.0549 -36.9123 -6.80713 -3.54246 70.5913 -2.07591 17.5655 64.4776 -5.9054 -1.45051 1.12747 8.6626 -90.0574 9.55431 2.22205 -0.287889 -2.11477 2.20724 -0.385468 -24.6651 2.20579 0.39357 -4.65245 2.2058 0.393564 110.007 -57.9303 -71.0706 18.9175 -14.1682 -33.7037 -2.60339 -28.3291 -30.8825 -15.3103 -0.984362 2.26272 -72.2756 -50.7948 105.252 -35.8945 -14.3292 -10.0424 3.19603 64.2056 -0.307941 -2.2159 -0.0990262 -11.1463 5.6926 0.495252 -0.0794775 -20.8823 -0.538323 7.06828 
-78.1283 86.128 87.7586 82.5786 46.5591 92.2808 -176.892 44.8678 81.916 -35.9145 12.2671 -2.22153 52.2147 -0.674078 12.626 46.6664 -1.42305 2.42264 172.59 -3.9406 85.9767 -43.316 -3.81402 -1.47803 54.7645 2.39222 22.2189 68.7942 -4.19989 8.03273 1.23396 9.31645 -89.49 8.23099 2.687 0.849155 -3.4374 2.72179 0.729981 -25.9878 2.30756 1.61778 -5.97513 2.30756 1.61776 108.296 -56.5309 -73.3423 20.9138 -16.857 -34.2543 -1.85811 -20.9178 -35.8166 -17.2907 -1.08204 2.09813 -74.2239 -48.9911 102.44 -38.3227 -11.6762 -14.043 3.31571 54.2729 0.00859467 -1.22172 -0.173284 -12.5965 15.2076 -1.59975 4.98524 -21.385 -2.73715 -1.20165 
-69.9501 84.0863 80.3749 80.8386 52.0929 92.8766 -174.537 45.9732 77.7641 -52.0787 15.3443 -2.06827 62.9449 8.35709 16.6581 46.8399 -1.39414 3.37468 170.378 7.6376 84.8664 -68.7415 -9.09951 -0.555043 56.2886 0.354202 11.7799 59.7393 -6.14645 -6.9061 0.985377 9.96653 -89.4314 6.92963 2.21165 1.0286 -4.73976 2.25478 0.930232 -27.2825 1.80027 1.64583 -7.26983 1.80028 1.64583 107.97 -56.4238 -73.7989 22.5666 -16.2579 -39.7484 -3.52307 -25.8891 -33.6187 -17.839 -1.10436 2.01712 -75.9737 -49.225 99.7461 -37.1537 -7.53828 -14.9506 2.76821 40.2215 -3.55987 2.44123 -0.426606 -12.3912 17.2515 -3.21431 7.6815 -19.0198 -4.68768 -4.93084 
-62.0924 82.1815 72.8633 83.1358 54.5789 89.6978 -175.863 41.5158 75.2993 -61.9318 16.6427 -0.420569 67.2638 14.4527 24.7192 51.7955 -1.52716 4.97878 173.432 29.6238 86.6736 -87.8008 0.0321329 -2.68975 71.4035 -5.10989 16.4046 60.767 -5.73113 -3.89577 0.830062 10.604 -89.4655 5.65247 1.8817 1.00187 -6.01747 1.92399 0.918055 -28.5567 1.49364 1.52112 -8.54408 1.49364 1.52111 104.877 -54.6571 -78.1773 25.0374 -12.9215 -47.3888 0.394034 -23.0467 -25.8163 -19.0527 -1.06949 1.29147 -77.7818 -50.758 96.9736 -33.1166 -3.87248 -26.2526 1.60913 35.9819 -4.90649 5.11886 -0.572662 -11.614 20.6375 -4.30964 8.84374 -17.0606 -6.49085 -4.40978 
-54.3736 82.154 65.7475 91.2823 60.1224 87.0301 179.414 31.9522 79.9639 -68.1978 19.6059 3.11215 68.89 17.7226 27.7471 58.7878 -1.30599 8.47387 177.93 48.3322 84.8434 -77.3367 3.7386 -2.57985 75.9564 -6.54613 15.5558 61.7258 -5.58613 -2.2539 0.51171 10.8811 -90.1809 5.11887 0.948125 -0.37747 -6.55178 0.930593 -0.418851 -29.0901 1.01774 -0.0750558 -9.07745 1.01774 -0.0750482 101.334 -48.3634 -83.4966 25.7342 -5.82704 -61.8657 0.306719 -22.0715 -18.0152 -16.4303 -0.808036 0.554201 -81.7654 -45.2345 90.5502 -26.6726 -3.43881 -45.7785 5.90606 33.2788 -11.7382 10.4665 -0.676428 -9.68937 21.6994 -5.45555 5.01723 -18.0389 -6.8723 -0.55749 
-44.9367 84.0749 57.9618 97.6999 68.7342 86.0999 173.908 21.3131 87.6867 -70.0327 22.9603 8.29547 70.2966 17.7422 23.1284 64.2814 -0.351808 13.6103 -175.752 56.7503 74.6578 -47.5402 -5.92382 -2.1923 61.1088 0.401433 19.0092 62.817 -5.44879 -0.571654 0.289497 10.4472 -90.8806 5.97784 0.208317 -1.73772 -5.69427 0.131639 -1.74522 -28.2214 0.720876 -1.59485 -8.20875 0.720876 -1.59486 100.038 -36.2612 -86.1479 19.7498 8.15014 -69.7893 -2.13579 -16.0302 -14.7742 -10.3856 -0.427167 -0.41446 -84.4848 -36.1213 84.845 -20.4654 -8.39195 -66.5179 17.4287 27.8477 -30.3115 12.6395 -0.710106 -9.06975 20.1188 -8.22239 -0.133257 -21.8043 -7.70287 -1.47621 
-32.1705 91.4928 45.8888 91.2856 78.9079 96.9693 177.183 7.80394 99.4692 -53.1533 30.7244 15.6853 62.891 8.46332 6.3719 67.3127 -0.660918 11.6087 -178.847 61.2678 68.2757 -41.3371 -6.67781 0.69238 51.9526 3.26238 19.1638 43.1328 -2.12006 -1.09465 -0.293344 9.31366 -91.5532 8.21553 -1.26682 -2.99721 -3.45813 -1.39744 -2.93863 -25.9658 -0.30803 -3.23913 -5.95316 -0.308033 -3.23913 100.06 -27.4355 -86.6909 3.15099 21.8692 -59.0443 -4.07528 -14.8594 -20.8609 -7.94391 -0.24826 -1.60137 -84.1561 -28.5939 84.1373 -20.7538 -14.6098 -76.1678 33.1214 17.6164 -60.8579 10.0948 -0.82392 -10.869 11.3169 -9.88659 -1.45533 -21.9789 -8.53121 -5.24513 
-17.5946 102.273 29.4412 65.2661 82.1979 119.898 -170.643 -2.29547 107.929 -25.9075 26.5988 12.6114 31.563 -7.99025 -19.0531 53.3425 -1.9913 9.38006 177.631 57.7727 64.8058 -33.6602 -7.13783 1.72061 42.7971 6.054 21.0469 24.0572 1.27832 -4.14509 -0.863153 8.04861 -91.4267 10.7422 -2.37659 -2.62562 -0.928999 -2.48982 -2.51853 -23.4508 -1.47808 -3.21802 -3.43812 -1.47807 -3.21802 100.248 -24.736 -86.4455 -7.47812 26.0193 -42.9462 -0.868212 -2.23062 -20.3106 -7.19201 -0.109993 -3.76671 -82.5496 -29.7964 87.5112 -19.5333 -22.6274 -71.0219 35.3903 7.06411 -80.9303 22.6225 -1.1153 -9.88055 -1.25828 -9.25225 -3.11189 -21.8543 -7.80451 -6.53053 
-3.39858 106.698 14.4464 90.6853 86.9964 90.6074 -176.057 -4.36727 108.489 -53.1899 26.1501 16.4758 41.8444 -4.38052 -12.7602 35.0506 -1.28506 13.796 173.647 47.0554 63.0248 -23.9439 -2.5228 1.49031 39.5065 7.21237 19.8016 25.5007 1.46262 -7.52548 -0.916349 8.11103 -91.1469 10.6277 -2.35239 -2.06166 -1.04265 -2.44082 -1.95615 -23.574 -1.62427 -2.6731 -3.56135 -1.62426 -2.6731 100.663 -22.1441 -85.6738 -25.3938 17.4289 -13.1232 5.52096 11.9476 -9.27401 -6.46173 0.0784379 -7.16765 -80.795 -26.1539 90.6516 -5.57311 -35.4392 -49.7317 38.6549 14.0099 -72.2767 22.7289 -0.752806 -7.30428 -8.95964 -10.3856 -4.28387 -17.5143 -9.08026 -9.24064 
11.2694 104.762 -1.16454 119.258 87.8595 58.4196 177.286 -5.32858 106.835 -76.1167 19.2344 14.9282 43.7191 -3.93549 -8.19004 32.4619 -1.26525 11.4181 171.23 34.6458 63.3242 -8.11732 5.98071 0.189189 29.5711 8.59079 26.87 39.7726 -1.71136 -6.01839 -0.960113 8.2591 -90.924 10.337 -2.33552 -1.63276 -1.33274 -2.40511 -1.52836 -23.8701 -1.73696 -2.25912 -3.85741 -1.73696 -2.25912 101.764 -26.0548 -83.0265 -30.543 4.37454 15.565 7.50356 -6.90822 -0.123546 -6.04668 -0.0512344 -4.58964 -80.0166 -19.5959 91.7219 15.0059 -27.8959 -9.3522 18.4281 30.6871 -31.5528 13.4853 -0.353587 -6.25853 -11.567 -11.0761 -3.11815 -14.8419 -9.96566 -11.2059 
26.1135 97.0483 -16.695 100.956 87.4986 73.4684 172.367 -5.16509 103.416 -93.589 13.9208 10.2871 46.9819 -2.10218 -4.23178 38.0424 -1.18801 10.9787 169.108 30.0753 65.3106 -13.6394 10.585 1.59248 30.5612 8.8244 24.2076 52.0878 -4.71274 -6.86926 -1.26074 8.19101 -90.5579 10.4782 -2.76733 -0.852159 -1.19009 -2.80214 -0.729468 -23.7411 -2.38333 -1.64482 -3.72841 -2.38332 -1.64483 106.186 -34.2316 -74.4264 -16.5437 -1.65489 37.3954 6.79769 -5.41036 -2.94811 -5.44453 -0.0389382 -4.81194 -79.5088 -23.4745 93.1257 17.7083 -19.7604 24.7571 -3.28301 43.3871 2.58504 2.07198 -0.319635 -9.74995 -13.6267 -10.1821 -1.6738 -14.0881 -9.22516 -11.502 
36.8288 85.9677 -27.8235 95.7271 76.6401 85.0929 172.522 4.7845 101.735 -118.953 11.898 3.85588 51.8204 1.74445 3.42552 51.4046 -0.946741 11.4876 164.432 42.0224 76.6035 -52.42 -14.1692 6.91215 54.6059 2.16869 7.32279 41.2175 -1.96823 -0.754155 -0.371599 9.22631 -91.3871 8.44489 -1.3512 -2.74092 -3.22722 -1.4706 -2.67886 -25.7452 -0.464819 -3.0199 -5.73252 -0.464825 -3.01991 113.008 -45.409 -64.2391 -8.29872 4.26517 28.7673 4.31545 -1.00128 -1.08248 -1.03638 -0.0256074 -4.74335 -75.1378 -37.7981 101.553 -2.51524 -22.5886 41.7433 2.8556 55.4545 0.861981 -0.441668 -0.196457 -9.43786 -7.45068 -8.48258 2.06828 -11.7654 -8.16292 -7.28431 
43.8043 81.4674 -35.1067 97.7072 66.1822 89.9511 171.997 35.0911 92.0698 -122.709 8.14961 2.97022 55.8685 6.28035 9.88528 60.0389 -0.298987 14.8061 160.689 42.039 86.5522 -69.119 -20.668 7.10063 65.5872 -3.08413 6.85787 45.0729 -2.55557 0.466074 0.600068 10.2813 -92.1709 6.28417 0.280635 -4.26812 -5.39393 0.0926956 -4.27631 -27.8774 1.54923 -3.98733 -7.86472 1.54923 -3.98734 110.404 -53.3373 -69.8472 -9.04234 3.09427 -6.32989 8.45578 -5.00969 -8.38214 -6.89561 -0.096178 -3.95246 -72.2561 -45.7057 105.818 -41.8873 -16.7503 17.3958 20.9524 75.1305 -22.5084 -4.15671 -0.0106468 -10.8007 -2.40796 -6.78391 -1.46335 -11.4244 -6.42943 -2.13513 
